<svg width="24" height="24" viewBox="0 0 24 24" fill="none" xmlns="http://www.w3.org/2000/svg">
<path fill-rule="evenodd" clip-rule="evenodd" d="M17.0001 20V11H15.0001V4H22.0001L20.0001 9H22.0001L17.0001 20ZM15 13V20H3.99997C2.89997 20 1.99997 19.1 1.99997 18V15C1.99997 13.9 2.89997 13 3.99997 13H15ZM6.24984 15.75H4.74984V17.25H6.24984V15.75ZM12.9998 4V11H3.99976C2.89976 11 1.99976 10.1 1.99976 9V6C1.99976 4.9 2.89976 4 3.99976 4H12.9998ZM6.24984 6.75003H4.74984V8.25003H6.24984V6.75003Z" fill="#FFB84B"/>
</svg>
