<svg width="3" height="13" viewBox="0 0 3 13" fill="none" xmlns="http://www.w3.org/2000/svg">
<path d="M2.70312 6.555C2.70312 6.36565 2.66817 6.17815 2.60025 6.00321C2.53233 5.82827 2.43277 5.66932 2.30727 5.53543C2.18177 5.40154 2.03278 5.29533 1.8688 5.22287C1.70483 5.1504 1.52908 5.11311 1.3516 5.11311C1.17411 5.11311 0.998365 5.1504 0.83439 5.22287C0.670415 5.29533 0.521424 5.40154 0.395923 5.53543C0.270422 5.66932 0.170869 5.82827 0.102948 6.00321C0.0350277 6.17815 6.98399e-05 6.36565 6.98316e-05 6.555C0.000151116 6.93742 0.142621 7.30413 0.39614 7.57448C0.649658 7.84483 0.993457 7.99666 1.3519 7.99657C1.71035 7.99648 2.05409 7.84449 2.30749 7.57402C2.56089 7.30355 2.70321 6.93676 2.70312 6.55435L2.70312 6.555ZM2.70312 1.96924C2.70312 1.77989 2.66817 1.59239 2.60025 1.41745C2.53233 1.24251 2.43277 1.08356 2.30727 0.949665C2.18177 0.815773 2.03278 0.709563 1.8688 0.637101C1.70483 0.564639 1.52908 0.527344 1.3516 0.527344C1.17411 0.527344 0.998365 0.564639 0.83439 0.637101C0.670415 0.709563 0.521424 0.815773 0.395923 0.949665C0.270422 1.08356 0.170869 1.24251 0.102949 1.41745C0.0350279 1.59239 7.00403e-05 1.77989 7.0032e-05 1.96924C0.000151316 2.35165 0.142622 2.71837 0.39614 2.98872C0.649658 3.25906 0.993457 3.41089 1.3519 3.41081C1.71035 3.41072 2.05409 3.25872 2.30749 2.98825C2.56089 2.71778 2.70321 2.351 2.70312 1.96858L2.70312 1.96924ZM2.70312 11.1408C2.70312 10.9514 2.66817 10.7639 2.60025 10.589C2.53233 10.414 2.43277 10.2551 2.30727 10.1212C2.18177 9.9873 2.03278 9.88109 1.8688 9.80863C1.70483 9.73617 1.52908 9.69887 1.3516 9.69887C1.17411 9.69887 0.998365 9.73617 0.83439 9.80863C0.670415 9.88109 0.521424 9.9873 0.395923 10.1212C0.270422 10.2551 0.170869 10.414 0.102948 10.589C0.0350275 10.7639 6.96394e-05 10.9514 6.96311e-05 11.1408C0.000150915 11.5232 0.142621 11.8899 0.39614 12.1602C0.649658 12.4306 0.993457 12.5824 1.3519 12.5823C1.71035 12.5822 2.05409 12.4302 2.30749 12.1598C2.56089 11.8893 2.70321 11.5225 2.70312 11.1401L2.70312 11.1408Z" fill="#425662"/>
</svg>
