<svg width="18" height="19" viewBox="0 0 18 19" fill="none" xmlns="http://www.w3.org/2000/svg">
<path d="M2 2.97H8C8.55 2.97 9 2.52 9 1.97C9 1.42 8.55 0.970001 8 0.970001H2C0.9 0.970001 0 1.87 0 2.97V16.97C0 18.07 0.9 18.97 2 18.97H8C8.55 18.97 9 18.52 9 17.97C9 17.42 8.55 16.97 8 16.97H2V2.97Z" fill="#C1C1C1"/>
<path d="M17.65 9.62L14.86 6.83C14.7905 6.75855 14.7012 6.70948 14.6036 6.68907C14.506 6.66866 14.4045 6.67783 14.3121 6.71542C14.2198 6.753 14.1408 6.81729 14.0851 6.90006C14.0295 6.98282 13.9999 7.08029 14 7.18V8.97H7C6.45 8.97 6 9.42 6 9.97C6 10.52 6.45 10.97 7 10.97H14V12.76C14 13.21 14.54 13.43 14.85 13.11L17.64 10.32C17.84 10.13 17.84 9.81 17.65 9.62Z" fill="#C1C1C1"/>
</svg>
