<svg width="22" height="22" viewBox="0 0 22 22" fill="none" xmlns="http://www.w3.org/2000/svg">
<path d="M1 20.97H21M5 5.97H17" stroke="#C1C1C1" stroke-width="1.5" stroke-linecap="round" stroke-linejoin="round"/>
<path d="M6 5.97H16L16.4385 9.4785C16.4795 9.8055 16.5525 10.1275 16.6565 10.4395L18.3235 15.441C18.4407 15.7925 18.5185 16.1559 18.5555 16.5245L19 20.97H3L3.4445 16.525C3.48141 16.1562 3.55923 15.7926 3.6765 15.441L5.3435 10.4395C5.4475 10.1275 5.5205 9.8055 5.5615 9.4785L6 5.97Z" stroke="#C1C1C1" stroke-width="1.5" stroke-linejoin="round"/>
<path d="M11 2.97L11.414 2.556C11.5997 2.37021 11.8203 2.22283 12.063 2.12229C12.3057 2.02174 12.5658 1.96999 12.8285 1.97H13.1715C13.4342 1.97001 13.6943 1.91826 13.937 1.81772C14.1797 1.71717 14.4003 1.56979 14.586 1.384L15 0.970001" stroke="#C1C1C1" stroke-width="1.5" stroke-linecap="round" stroke-linejoin="round"/>
<path d="M7.5 14.47C7.50064 15.1576 7.70347 15.8299 8.08326 16.4032C8.46305 16.9764 9.00303 17.4253 9.636 17.694M14.5 14.47C14.4993 15.1576 14.2964 15.8299 13.9167 16.4031C13.5369 16.9763 12.9969 17.4253 12.364 17.694M8.467 12.055C8.79346 11.7117 9.1864 11.4385 9.62188 11.2519C10.0574 11.0654 10.5263 10.9695 11 10.97C11.4738 10.9694 11.9428 11.0653 12.3784 11.2518C12.814 11.4384 13.207 11.7116 13.5335 12.055" stroke="#C1C1C1" stroke-linecap="round"/>
<path d="M11 15.47C11.5523 15.47 12 15.0223 12 14.47C12 13.9177 11.5523 13.47 11 13.47C10.4477 13.47 10 13.9177 10 14.47C10 15.0223 10.4477 15.47 11 15.47Z" fill="#C1C1C1"/>
</svg>
