<svg width="22" height="17" viewBox="0 0 22 17" fill="none" xmlns="http://www.w3.org/2000/svg">
<path d="M5.34301 1.414L4.63601 2.121C3.79891 2.95572 3.13508 3.94768 2.6827 5.03985C2.23031 6.13202 1.9983 7.30285 2.00001 8.485C1.9983 9.66715 2.23031 10.838 2.6827 11.9301C3.13508 13.0223 3.79891 14.0143 4.63601 14.849L5.34301 15.556L3.92901 16.97L3.22201 16.263C2.19918 15.2426 1.38801 14.0302 0.835079 12.6954C0.282151 11.3606 -0.0016387 9.92977 7.11772e-06 8.485C7.11772e-06 5.448 1.23201 2.695 3.22201 0.707L3.92901 0L5.34301 1.414ZM18.071 0L18.778 0.707C19.8008 1.72739 20.612 2.93979 21.1649 4.27458C21.7179 5.60936 22.0017 7.04023 22 8.485C22 11.522 20.768 14.274 18.778 16.263L18.071 16.97L16.657 15.556L17.364 14.849C18.2011 14.0143 18.8649 13.0223 19.3173 11.9301C19.7697 10.838 20.0017 9.66715 20 8.485C20.0017 7.30285 19.7697 6.13202 19.3173 5.03985C18.8649 3.94768 18.2011 2.95572 17.364 2.121L16.657 1.414L18.071 0ZM8.17101 4.242L7.46401 4.949C6.9989 5.41276 6.63011 5.96393 6.37885 6.57078C6.1276 7.17764 5.99885 7.82819 6.00001 8.485C6.00001 9.866 6.55901 11.115 7.46501 12.021L8.17201 12.728L6.75801 14.142L6.05001 13.435C5.39917 12.7856 4.88303 12.014 4.53123 11.1645C4.17944 10.315 3.9989 9.40443 4.00001 8.485C4.00001 6.552 4.78501 4.801 6.05001 3.535L6.75701 2.828L8.17201 4.242H8.17101ZM15.243 2.828L15.95 3.535C16.6008 4.18444 17.117 4.95604 17.4688 5.80551C17.8206 6.65497 18.0011 7.56557 18 8.485C18.0011 9.40443 17.8206 10.315 17.4688 11.1645C17.117 12.014 16.6008 12.7856 15.95 13.435L15.243 14.142L13.828 12.728L14.535 12.021C15.0003 11.5573 15.3693 11.0062 15.6207 10.3993C15.8721 9.79247 16.001 9.14188 16 8.485C16.0012 7.82818 15.8725 7.17761 15.6212 6.57075C15.37 5.96389 15.0012 5.41273 14.536 4.949L13.828 4.242L15.243 2.828ZM12 5.485V11.485H10V5.485H12Z" fill="#C1C1C1"/>
</svg>
