<svg width="24" height="15" viewBox="0 0 24 15" fill="none" xmlns="http://www.w3.org/2000/svg">
<path fill-rule="evenodd" clip-rule="evenodd" d="M4 0V2H12V3H3C2.20435 3 1.44129 3.31607 0.87868 3.87868C0.31607 4.44129 0 5.20435 0 6L0 12C0 12.7956 0.31607 13.5587 0.87868 14.1213C1.44129 14.6839 2.20435 15 3 15H15C15.7526 15.0001 16.4778 14.7173 17.0316 14.2077C17.5854 13.6981 17.9275 12.999 17.99 12.249L24 13V5L17.99 5.751C17.9275 5.00099 17.5854 4.30186 17.0316 3.79228C16.4778 3.2827 15.7526 2.99991 15 3H14V1C14 0.734784 13.8946 0.48043 13.7071 0.292893C13.5196 0.105357 13.2652 0 13 0H4ZM18 7.766V10.234L22 10.734V7.266L18 7.766ZM16 6C16 5.73478 15.8946 5.48043 15.7071 5.29289C15.5196 5.10536 15.2652 5 15 5H3C2.73478 5 2.48043 5.10536 2.29289 5.29289C2.10536 5.48043 2 5.73478 2 6V12C2 12.2652 2.10536 12.5196 2.29289 12.7071C2.48043 12.8946 2.73478 13 3 13H15C15.2652 13 15.5196 12.8946 15.7071 12.7071C15.8946 12.5196 16 12.2652 16 12V6Z" fill="#C1C1C1"/>
</svg>
