<svg width="64" height="64" viewBox="0 0 64 64" fill="none" xmlns="http://www.w3.org/2000/svg">
<circle cx="32" cy="32" r="32" fill="#F79681" fill-opacity="0.5"/>
<path fill-rule="evenodd" clip-rule="evenodd" d="M30.9172 23.8269C30.3908 24.4884 29.8002 25.5042 28.9528 26.9679L24.552 34.5692C23.7016 36.0381 23.1124 37.0601 22.7998 37.8488C22.4898 38.6307 22.5434 38.9604 22.6679 39.1763C22.7924 39.3922 23.0509 39.6038 23.8829 39.7273C24.7221 39.8519 25.9017 39.8541 27.5991 39.8541H36.4005C38.0979 39.8541 39.2775 39.8519 40.1167 39.7273C40.9487 39.6038 41.2071 39.3922 41.3316 39.1763C41.4561 38.9604 41.5097 38.6307 41.1998 37.8488C40.8871 37.0601 40.298 36.0381 39.4475 34.5692L35.0468 26.9679C34.1994 25.5042 33.6088 24.4884 33.0823 23.8269C32.5606 23.1713 32.2488 23.0535 31.9998 23.0535C31.7508 23.0535 31.439 23.1713 30.9172 23.8269ZM29.6457 22.815C30.27 22.0306 30.9996 21.4285 31.9998 21.4285C33 21.4285 33.7296 22.0306 34.3538 22.815C34.9644 23.5822 35.6141 24.7045 36.4177 26.0925L36.4177 26.0925L36.4531 26.1538L40.8538 33.755L40.8893 33.8163C41.6959 35.2094 42.348 36.3357 42.7104 37.2499C43.0808 38.1843 43.2402 39.1194 42.7394 39.988C42.2386 40.8565 41.3495 41.1871 40.3553 41.3347C39.3825 41.4792 38.0811 41.4791 36.4713 41.4791H36.4713H36.4005H27.5991H27.5283H27.5282C25.9184 41.4791 24.6171 41.4792 23.6443 41.3347C22.65 41.1871 21.7609 40.8565 21.2602 39.988C20.7594 39.1194 20.9187 38.1843 21.2892 37.2499C21.6516 36.3357 22.3036 35.2094 23.1102 33.8163L23.1457 33.755L27.5464 26.1537L27.5819 26.0926L27.5819 26.0925C28.3854 24.7046 29.0352 23.5822 29.6457 22.815ZM32 27.9374C32.4488 27.9374 32.8125 28.3012 32.8125 28.7499V33.0833C32.8125 33.532 32.4488 33.8958 32 33.8958C31.5513 33.8958 31.1875 33.532 31.1875 33.0833V28.7499C31.1875 28.3012 31.5513 27.9374 32 27.9374ZM32.0005 37.4166C32.5988 37.4166 33.0838 36.9316 33.0838 36.3333C33.0838 35.735 32.5988 35.2499 32.0005 35.2499C31.4022 35.2499 30.9171 35.735 30.9171 36.3333C30.9171 36.9316 31.4022 37.4166 32.0005 37.4166Z" fill="#FF1010"/>
</svg>
