<svg width="60" height="60" viewBox="0 0 60 60" fill="none" xmlns="http://www.w3.org/2000/svg">
<circle cx="30" cy="30" r="30" fill="#EBF8F9"/>
<path d="M27.3048 35.3356L23.6451 31.6758C23.4479 31.4786 23.1804 31.3679 22.9015 31.3679C22.6226 31.3679 22.3552 31.4786 22.158 31.6758C21.9608 31.8731 21.85 32.1405 21.85 32.4194C21.85 32.5575 21.8772 32.6942 21.93 32.8218C21.9829 32.9494 22.0603 33.0653 22.158 33.163L26.5666 37.5716C26.9779 37.9829 27.6423 37.9829 28.0537 37.5716L39.2123 26.413C39.4095 26.2158 39.5203 25.9483 39.5203 25.6694C39.5203 25.3905 39.4095 25.1231 39.2123 24.9258C39.0151 24.7286 38.7476 24.6179 38.4687 24.6179C38.1898 24.6179 37.9224 24.7286 37.7252 24.9258L27.3048 35.3356Z" fill="#539B5B"/>
</svg>
