<svg width="20" height="20" viewBox="0 0 20 20" fill="none" xmlns="http://www.w3.org/2000/svg">
<path d="M19.9983 9.99835V9.99335C19.9983 7.03443 18.7101 4.37715 16.6644 2.54981L16.6544 2.54147C16.6292 2.51424 16.601 2.48992 16.5703 2.46898L16.5686 2.46815C14.7518 0.872887 12.4153 -0.00469269 9.9975 1.88734e-05C7.47104 1.88734e-05 5.16457 0.938274 3.40638 2.48648L3.41722 2.47731C3.39603 2.49339 3.37649 2.51153 3.35889 2.53147C2.30192 3.46739 1.45587 4.61804 0.876811 5.9056C0.297746 7.19316 -0.00112231 8.58907 3.16696e-06 10.0008C3.16696e-06 12.9589 1.28656 15.6162 3.33056 17.4444L3.34056 17.4527C3.36703 17.4827 3.39664 17.5098 3.42888 17.5336L3.43055 17.5344C5.24693 19.1273 7.5816 20.0036 9.9975 19.9992C12.4247 20.0029 14.7694 19.1185 16.5894 17.5127L16.5786 17.5219C17.6539 16.587 18.5159 15.4321 19.1061 14.1352C19.6964 12.8384 20.0012 11.4299 20 10.005V9.99918L19.9983 9.99835ZM16.2803 16.502C15.785 16.1013 15.2523 15.7492 14.6896 15.4504L14.6354 15.4237C15.1462 13.9514 15.4537 12.254 15.4829 10.4883V10.475H19.0334C18.9137 12.7593 17.9305 14.9128 16.2828 16.4995L16.2803 16.502ZM10.4758 15.2479C11.5449 15.3054 12.544 15.5404 13.4655 15.9229L13.4055 15.9012C12.6673 17.5844 11.6282 18.741 10.4758 18.9951V15.2479ZM10.4758 14.2947V10.475H14.5321C14.4999 12.0567 14.2257 13.6242 13.7189 15.1229L13.7514 15.0138C12.7168 14.5886 11.6165 14.3456 10.4991 14.2955L10.4758 14.2947ZM10.4758 9.52172V5.70204C11.6233 5.64967 12.7531 5.39846 13.8147 4.9596L13.7489 4.98377C14.2113 6.33282 14.4955 7.88769 14.5321 9.50422V9.52172H10.4758ZM10.4758 4.74879V1.00327C11.6282 1.25741 12.6673 2.40898 13.4055 4.09718C12.544 4.45548 11.5449 4.68963 10.5 4.74795L10.4758 4.74879ZM12.8539 1.41573C13.8358 1.74324 14.7541 2.23705 15.5687 2.87561L15.5495 2.86061C15.1804 3.15059 14.7663 3.4239 14.3296 3.66138L14.283 3.68471C13.9302 2.85205 13.445 2.0819 12.8464 1.40407L12.8539 1.41323V1.41573ZM9.52087 1.00577V4.74879C8.49304 4.69635 7.4818 4.46807 6.53112 4.07384L6.59112 4.09551C7.33272 2.41232 8.37014 1.25658 9.52254 1.00243L9.52087 1.00577ZM5.71452 3.68221C5.26284 3.43919 4.83246 3.1585 4.42797 2.84311L4.44796 2.85811C5.23884 2.23829 6.12842 1.75604 7.07941 1.43157L7.14274 1.4124C6.5598 2.07187 6.08481 2.81938 5.73536 3.62722L5.71452 3.68221ZM9.52254 5.70121V9.52089H5.46621C5.50288 7.88686 5.78702 6.33199 6.28198 4.87378L6.24948 4.98293C7.28361 5.40746 8.3833 5.65017 9.50004 5.70038L9.52254 5.70121ZM9.52254 10.4741V14.2938C8.375 14.3462 7.24526 14.5974 6.18365 15.0363L6.24948 15.0121C5.78702 13.6639 5.50288 12.1082 5.46621 10.4916V10.4741H9.52254ZM9.52254 15.2471V18.9926C8.37014 18.7385 7.33106 17.5869 6.59278 15.8987C7.45438 15.5404 8.45346 15.3071 9.49837 15.2487L9.52254 15.2471ZM7.14774 18.5801C6.16611 18.2536 5.24785 17.7609 4.43297 17.1236L4.45296 17.1386C4.8221 16.8486 5.23623 16.5753 5.67286 16.3378L5.71952 16.3145C6.0694 17.1475 6.5545 17.917 7.15524 18.5918L7.14774 18.5835V18.5801ZM14.2838 16.3137C14.7671 16.5761 15.1812 16.8486 15.5704 17.1528L15.5504 17.1378C14.7595 17.7576 13.8699 18.2398 12.9189 18.5643L12.8556 18.5835C13.4385 17.9243 13.9135 17.1771 14.263 16.3695L14.2838 16.3153V16.3137ZM19.0334 9.52172H15.4829C15.4573 7.79766 15.1598 6.08843 14.6013 4.45715L14.6354 4.57214C15.2241 4.26221 15.7813 3.8961 16.2995 3.47889L16.2795 3.49389C17.9237 5.07462 18.9073 7.22011 19.0317 9.49756L19.0326 9.52089L19.0334 9.52172ZM3.71803 3.49473C4.19799 3.88469 4.73711 4.24216 5.30873 4.5463L5.36289 4.57297C4.8521 6.04535 4.54462 7.7427 4.51546 9.50839V9.52172H0.964089C1.08382 7.23741 2.06704 5.08393 3.71469 3.49723L3.71803 3.49473ZM0.964922 10.475H4.51546C4.541 12.199 4.83853 13.9083 5.39705 15.5396L5.36289 15.4246C4.73711 15.757 4.19882 16.1145 3.69886 16.5178L3.71886 16.5028C2.07461 14.9221 1.09105 12.7766 0.966589 10.4991L0.965756 10.4758L0.964922 10.475Z" fill="#9595A6"/>
</svg>
