<svg width="20" height="22" viewBox="0 0 20 22" fill="none" xmlns="http://www.w3.org/2000/svg">
<path d="M3.88251 6.52706C4.20165 3.38806 6.84482 1 10 1V1C13.1552 1 15.7984 3.38806 16.1175 6.52706L16.4627 9.92269C16.468 9.97501 16.4707 10.0012 16.4735 10.0271C16.6078 11.2805 16.9859 12.4956 17.5866 13.6039C17.599 13.6268 17.6117 13.6498 17.637 13.696L18.3007 14.9048C18.9324 16.0554 19.2482 16.6307 19.1278 17.095C19.0706 17.3153 18.9525 17.5149 18.787 17.6709C18.4379 18 17.7816 18 16.469 18H3.53099C2.21842 18 1.56213 18 1.21304 17.6709C1.04749 17.5149 0.929355 17.3153 0.872235 17.095C0.751788 16.6307 1.06763 16.0554 1.69932 14.9048L2.36301 13.696C2.38832 13.6498 2.40097 13.6268 2.41339 13.6039C3.01411 12.4956 3.39225 11.2805 3.52652 10.0271C3.52929 10.0012 3.53195 9.97501 3.53727 9.92269L3.88251 6.52706Z" stroke="#9595A6" stroke-width="1.2"/>
<path d="M7.10222 18.0353C7.27315 18.8858 7.64978 19.6374 8.17372 20.1734C8.69765 20.7094 9.3396 21 10 21C10.6604 21 11.3024 20.7095 11.8263 20.1734C12.3502 19.6374 12.7269 18.8858 12.8978 18.0353" stroke="#9595A6" stroke-width="1.20833" stroke-linecap="round"/>
<circle cx="15.5" cy="5.5" r="4.5" fill="#28B3BD"/>
</svg>
