<svg width="60" height="60" viewBox="0 0 60 60" fill="none" xmlns="http://www.w3.org/2000/svg">
<circle cx="30" cy="30" r="30" fill="#EFF2F7"/>
<path d="M24.4167 29.8333L24.4167 36.3333" stroke="#33A3AA" stroke-width="1.5" stroke-linecap="round" stroke-linejoin="round"/>
<path d="M28.75 32V36.3333" stroke="#33A3AA" stroke-width="1.5" stroke-linecap="round" stroke-linejoin="round"/>
<path d="M33.0833 27.6667V36.3333" stroke="#33A3AA" stroke-width="1.5" stroke-linecap="round" stroke-linejoin="round"/>
<rect x="19" y="23.3333" width="19.5" height="17.3333" rx="2" stroke="#33A3AA" stroke-width="1.5"/>
<path d="M34.7738 22.025C34.1182 22.6818 33.75 23.572 33.75 24.5C33.75 25.428 34.1182 26.3182 34.7738 26.975C35.4588 27.66 36.3538 28 37.2488 28C38.1438 28 39.0388 27.66 39.7238 26.975C41.4638 25.235 41.7488 20 41.7488 20C41.7488 20 36.5138 20.285 34.7738 22.025Z" fill="#EFF2F7"/>
<path d="M35.518 22.519C35.0262 23.0117 34.75 23.6794 34.75 24.3756C34.75 25.0717 35.0262 25.7394 35.518 26.2322C36.0318 26.746 36.7032 27.001 37.3746 27.001C38.0459 27.001 38.7173 26.746 39.2311 26.2322C40.5364 24.9269 40.7501 21 40.7501 21C40.7501 21 36.8232 21.2138 35.518 22.519ZM38.7023 25.7033C38.346 26.0559 37.8771 26.2509 37.3746 26.2509C37.0408 26.2509 36.7257 26.1571 36.4444 25.9959C36.7895 24.9157 37.4271 23.9668 38.2747 23.2504C37.2883 23.7605 36.4594 24.5481 35.8856 25.5008C35.3305 24.7657 35.3792 23.7192 36.0506 23.0479C36.7032 22.3952 38.5148 21.9939 39.925 21.8251C39.7562 23.2354 39.3549 25.047 38.7023 25.7033Z" fill="#33A3AA"/>
</svg>
