<svg width="60" height="60" viewBox="0 0 60 60" fill="none" xmlns="http://www.w3.org/2000/svg">
<circle cx="30" cy="30" r="30" fill="#EFF2F7"/>
<path fill-rule="evenodd" clip-rule="evenodd" d="M29.8748 20C26.6042 20 23.7911 21.9525 22.5347 24.7523C22.4142 25.0207 22.329 25.2105 22.2634 25.3486C22.1982 25.4857 22.1711 25.5306 22.1677 25.5363L22.1677 25.5363C22.1674 25.5368 22.1673 25.537 22.1674 25.5369C22.0667 25.6777 22.015 25.7185 21.9869 25.7367C21.9588 25.7549 21.9004 25.7854 21.7307 25.8195C21.6815 25.8294 21.5767 25.8334 21.125 25.8334C18.2945 25.8334 16 28.128 16 30.9584C16 33.7889 18.2945 36.0834 21.125 36.0834H32.2139L32.8567 34.5834H21.125C19.123 34.5834 17.5 32.9605 17.5 30.9584C17.5 28.9564 19.123 27.3334 21.125 27.3334L21.204 27.3335C21.5323 27.3337 21.8082 27.334 22.0265 27.2901C22.2916 27.2367 22.5538 27.1566 22.802 26.9959C23.0503 26.8352 23.2307 26.6288 23.3879 26.4088C23.4735 26.289 23.5495 26.1369 23.6181 25.9926C23.6917 25.8379 23.7836 25.6329 23.8992 25.3754L23.8992 25.3753L23.9032 25.3664C24.9266 23.0859 27.2163 21.5 29.8748 21.5C32.5332 21.5 34.8228 23.0858 35.8463 25.3661L35.8504 25.3753C35.966 25.6329 36.058 25.8379 36.1317 25.9927C36.2003 26.1371 36.2764 26.2893 36.3621 26.4092C36.5192 26.629 36.6996 26.8353 36.9477 26.996C37.1958 27.1566 37.4579 27.2366 37.7228 27.29C37.9412 27.334 38.2174 27.3337 38.546 27.3335L38.625 27.3334C40.627 27.3334 42.25 28.9564 42.25 30.9584C42.25 32.9605 40.627 34.5834 38.625 34.5834H38.5603L39.19 36.0526C41.7546 35.7714 43.75 33.5979 43.75 30.9584C43.75 28.128 41.4555 25.8334 38.625 25.8334C38.173 25.8334 38.0681 25.8294 38.0189 25.8195C37.8492 25.7853 37.7908 25.7549 37.7628 25.7367C37.7347 25.7186 37.683 25.6778 37.5824 25.537C37.5825 25.5371 37.5824 25.5369 37.5821 25.5364L37.5821 25.5364C37.5786 25.5307 37.5515 25.4856 37.4863 25.3486C37.4206 25.2104 37.3353 25.0205 37.2148 24.7519C35.9582 21.9523 33.1453 20 29.8748 20Z" fill="#33A3AA"/>
<path d="M34.5936 38.4166V37.7703L36.1037 36.3721C36.2322 36.2478 36.3399 36.1359 36.4269 36.0365C36.5153 35.937 36.5823 35.8397 36.6278 35.7444C36.6734 35.6477 36.6962 35.5435 36.6962 35.4316C36.6962 35.3073 36.6679 35.2003 36.6113 35.1105C36.5546 35.0194 36.4773 34.9496 36.3793 34.9013C36.2812 34.8516 36.17 34.8267 36.0457 34.8267C35.9159 34.8267 35.8027 34.853 35.706 34.9054C35.6093 34.9579 35.5348 35.0332 35.4823 35.1312C35.4298 35.2293 35.4036 35.346 35.4036 35.4813H34.5522C34.5522 35.2037 34.615 34.9628 34.7407 34.7584C34.8664 34.554 35.0424 34.3959 35.2689 34.284C35.4954 34.1721 35.7564 34.1162 36.052 34.1162C36.3558 34.1162 36.6202 34.1701 36.8453 34.2778C37.0718 34.3841 37.2479 34.5319 37.3736 34.7211C37.4992 34.9103 37.5621 35.1271 37.5621 35.3715C37.5621 35.5317 37.5303 35.6898 37.4668 35.8459C37.4046 36.002 37.2935 36.1753 37.1333 36.3658C36.9731 36.555 36.7473 36.7822 36.4559 37.0474L35.8365 37.6543V37.6833H37.618V38.4166H34.5936Z" fill="#33A3AA"/>
<path d="M29.3091 28.0665H28.2203C28.2004 27.9256 28.1598 27.8005 28.0985 27.6911C28.0372 27.5801 27.9584 27.4856 27.8623 27.4077C27.7662 27.3298 27.6552 27.2702 27.5292 27.2288C27.4049 27.1873 27.2699 27.1666 27.124 27.1666C26.8606 27.1666 26.631 27.2321 26.4355 27.363C26.2399 27.4922 26.0883 27.6812 25.9806 27.9297C25.8729 28.1767 25.819 28.4766 25.819 28.8296C25.819 29.1925 25.8729 29.4975 25.9806 29.7444C26.09 29.9913 26.2424 30.1777 26.438 30.3037C26.6335 30.4296 26.8597 30.4926 27.1166 30.4926C27.2608 30.4926 27.3942 30.4735 27.5168 30.4354C27.6411 30.3973 27.7513 30.3418 27.8474 30.2689C27.9435 30.1943 28.0231 30.104 28.086 29.9979C28.1507 29.8919 28.1954 29.7709 28.2203 29.635L29.3091 29.64C29.2809 29.8736 29.2105 30.099 29.0978 30.3161C28.9867 30.5315 28.8368 30.7246 28.6478 30.8953C28.4606 31.0643 28.2369 31.1986 27.9767 31.298C27.7182 31.3958 27.4257 31.4447 27.0992 31.4447C26.6451 31.4447 26.2391 31.3419 25.8811 31.1364C25.5249 30.9309 25.2431 30.6335 25.036 30.244C24.8305 29.8546 24.7277 29.3831 24.7277 28.8296C24.7277 28.2744 24.8321 27.8021 25.0409 27.4127C25.2498 27.0233 25.5331 26.7266 25.8911 26.5228C26.249 26.3173 26.6517 26.2145 27.0992 26.2145C27.3942 26.2145 27.6676 26.256 27.9195 26.3388C28.1731 26.4217 28.3976 26.5427 28.5932 26.7018C28.7887 26.8592 28.9478 27.0523 29.0704 27.281C29.1947 27.5096 29.2743 27.7715 29.3091 28.0665ZM34.7592 28.8296C34.7592 29.3848 34.6539 29.8571 34.4435 30.2465C34.2347 30.636 33.9496 30.9334 33.5884 31.1389C33.2287 31.3427 32.8244 31.4447 32.3753 31.4447C31.9229 31.4447 31.5169 31.3419 31.1572 31.1364C30.7976 30.9309 30.5134 30.6335 30.3046 30.244C30.0958 29.8546 29.9914 29.3831 29.9914 28.8296C29.9914 28.2744 30.0958 27.8021 30.3046 27.4127C30.5134 27.0233 30.7976 26.7266 31.1572 26.5228C31.5169 26.3173 31.9229 26.2145 32.3753 26.2145C32.8244 26.2145 33.2287 26.3173 33.5884 26.5228C33.9496 26.7266 34.2347 27.0233 34.4435 27.4127C34.6539 27.8021 34.7592 28.2744 34.7592 28.8296ZM33.6679 28.8296C33.6679 28.47 33.614 28.1667 33.5063 27.9198C33.4003 27.6729 33.2503 27.4856 33.0564 27.358C32.8625 27.2304 32.6355 27.1666 32.3753 27.1666C32.1151 27.1666 31.8881 27.2304 31.6942 27.358C31.5003 27.4856 31.3495 27.6729 31.2418 27.9198C31.1357 28.1667 31.0827 28.47 31.0827 28.8296C31.0827 29.1892 31.1357 29.4925 31.2418 29.7394C31.3495 29.9863 31.5003 30.1736 31.6942 30.3012C31.8881 30.4288 32.1151 30.4926 32.3753 30.4926C32.6355 30.4926 32.8625 30.4288 33.0564 30.3012C33.2503 30.1736 33.4003 29.9863 33.5063 29.7394C33.614 29.4925 33.6679 29.1892 33.6679 28.8296Z" fill="#33A3AA"/>
</svg>
