<svg width="60" height="60" viewBox="0 0 60 60" fill="none" xmlns="http://www.w3.org/2000/svg">
<circle cx="30" cy="30" r="30" fill="#EFF2F7"/>
<path d="M38 32H40V34H38C36.62 34 35.26 33.65 34 33C31.5 34.3 28.5 34.3 26 33C24.74 33.65 23.37 34 22 34H20V32H22C23.39 32 24.78 31.53 26 30.67C28.44 32.38 31.56 32.38 34 30.67C35.22 31.53 36.61 32 38 32ZM38 38H40V40H38C36.62 40 35.26 39.65 34 39C31.5 40.3 28.5 40.3 26 39C24.74 39.65 23.37 40 22 40H20V38H22C23.39 38 24.78 37.53 26 36.67C28.44 38.38 31.56 38.38 34 36.67C35.22 37.53 36.61 38 38 38ZM25 20L21 24H24V29H26V24H29M35 20L31 24H34V29H36V24H39" fill="#33A3AA"/>
</svg>
