<svg width="60" height="60" viewBox="0 0 60 60" fill="none" xmlns="http://www.w3.org/2000/svg">
<circle cx="30" cy="30" r="30" fill="#EFF2F7"/>
<path fill-rule="evenodd" clip-rule="evenodd" d="M29.8748 20C26.6042 20 23.7911 21.9525 22.5347 24.7523C22.4142 25.0207 22.329 25.2105 22.2634 25.3486C22.1982 25.4857 22.1711 25.5306 22.1677 25.5363L22.1677 25.5363C22.1674 25.5368 22.1673 25.537 22.1674 25.5369C22.0667 25.6777 22.015 25.7185 21.9869 25.7367C21.9588 25.7549 21.9004 25.7854 21.7307 25.8195C21.6815 25.8294 21.5767 25.8334 21.125 25.8334C18.2945 25.8334 16 28.128 16 30.9584C16 33.7889 18.2945 36.0834 21.125 36.0834H32.2139L32.8567 34.5834H21.125C19.123 34.5834 17.5 32.9605 17.5 30.9584C17.5 28.9564 19.123 27.3334 21.125 27.3334L21.204 27.3335C21.5323 27.3337 21.8082 27.334 22.0265 27.2901C22.2916 27.2367 22.5538 27.1566 22.802 26.9959C23.0503 26.8352 23.2307 26.6288 23.3879 26.4088C23.4735 26.289 23.5495 26.1369 23.6181 25.9926C23.6917 25.8379 23.7836 25.6329 23.8992 25.3754L23.8992 25.3753L23.9032 25.3664C24.9266 23.0859 27.2163 21.5 29.8748 21.5C32.5332 21.5 34.8228 23.0858 35.8463 25.3661L35.8504 25.3753C35.966 25.6329 36.058 25.8379 36.1317 25.9927C36.2003 26.1371 36.2764 26.2893 36.3621 26.4092C36.5192 26.629 36.6996 26.8353 36.9477 26.996C37.1958 27.1566 37.4579 27.2366 37.7228 27.29C37.9412 27.334 38.2174 27.3337 38.546 27.3335L38.625 27.3334C40.627 27.3334 42.25 28.9564 42.25 30.9584C42.25 32.9605 40.627 34.5834 38.625 34.5834H38.5603L39.19 36.0526C41.7546 35.7714 43.75 33.5979 43.75 30.9584C43.75 28.128 41.4555 25.8334 38.625 25.8334C38.173 25.8334 38.0681 25.8294 38.0189 25.8195C37.8492 25.7853 37.7908 25.7549 37.7628 25.7367C37.7347 25.7186 37.683 25.6778 37.5824 25.537C37.5825 25.5371 37.5824 25.5369 37.5821 25.5364L37.5821 25.5364C37.5786 25.5307 37.5515 25.4856 37.4863 25.3486C37.4206 25.2104 37.3353 25.0205 37.2148 24.7519C35.9582 21.9523 33.1453 20 29.8748 20Z" fill="#33A3AA"/>
</svg>
