<svg width="60" height="60" viewBox="0 0 60 60" fill="none" xmlns="http://www.w3.org/2000/svg">
<circle cx="30" cy="30" r="30" fill="#EFF2F7"/>
<path d="M30 24C31.3805 24 32.7425 24.3176 33.9806 24.9281C35.2187 25.5387 36.2998 26.4259 37.1402 27.5211C37.9806 28.6164 38.5577 29.8902 38.8271 31.2442C39.0964 32.5982 39.0506 33.9959 38.6933 35.3294L36.7615 34.8115M30 24C28.6195 24 27.2575 24.3176 26.0194 24.9281C24.7813 25.5387 23.7002 26.4259 22.8598 27.5211C22.0194 28.6164 21.4423 29.8902 21.1729 31.2442C20.9036 32.5982 20.9494 33.9959 21.3067 35.3294L23.2385 34.8115M30 24V26M23.6357 26.6357L25.05 28.05M36.3643 26.6357L34.95 28.05M30.7659 33.5823C31.2534 34.2916 30.9106 35.3738 30.0003 35.9994C29.0899 36.625 27.9568 36.5571 27.4693 35.8477C26.9498 35.0917 25.1564 30.8409 24.0674 28.2114C23.8623 27.7162 24.4679 27.3 24.8567 27.669C26.921 29.6283 30.2464 32.8263 30.7659 33.5823Z" stroke="#33A3AA" stroke-width="1.5" stroke-linecap="round"/>
</svg>
