<svg width="60" height="60" viewBox="0 0 60 60" fill="none" xmlns="http://www.w3.org/2000/svg">
<circle cx="30" cy="30" r="30" fill="#EFF2F7"/>
<path d="M29.5625 18.875C28.8663 18.875 28.1986 19.1516 27.7063 19.6438C27.2141 20.1361 26.9375 20.8038 26.9375 21.5V33.3403L26.594 33.6222C25.8457 34.2346 25.305 35.0633 25.0462 35.9949C24.7873 36.9265 24.8228 37.9154 25.1479 38.826C25.473 39.7366 26.0717 40.5244 26.862 41.0815C27.6523 41.6385 28.5956 41.9375 29.5625 41.9375C30.5294 41.9375 31.4727 41.6385 32.263 41.0815C33.0533 40.5244 33.652 39.7366 33.9771 38.826C34.3022 37.9154 34.3377 36.9265 34.0788 35.9949C33.82 35.0633 33.2793 34.2346 32.531 33.6222L32.1875 33.3403V21.5C32.1875 21.1553 32.1196 20.8139 31.9877 20.4955C31.8558 20.177 31.6624 19.8876 31.4187 19.6438C31.1749 19.4001 30.8855 19.2067 30.567 19.0748C30.2486 18.9429 29.9072 18.875 29.5625 18.875ZM25.0625 21.5C25.0625 20.3065 25.5366 19.1619 26.3805 18.318C27.2244 17.4741 28.369 17 29.5625 17C30.756 17 31.9006 17.4741 32.7445 18.318C33.5884 19.1619 34.0625 20.3065 34.0625 21.5V32.4733C35.0194 33.3747 35.6834 34.5427 35.9687 35.826C36.2539 37.1093 36.1471 38.4487 35.6622 39.6706C35.1773 40.8925 34.3366 41.9406 33.249 42.6791C32.1614 43.4176 30.8771 43.8124 29.5625 43.8124C28.2479 43.8124 26.9636 43.4176 25.876 42.6791C24.7884 41.9406 23.9477 40.8925 23.4628 39.6706C22.9779 38.4487 22.8711 37.1093 23.1563 35.826C23.4416 34.5427 24.1056 33.3747 25.0625 32.4733V21.5ZM32.5625 37.25C32.5625 37.8028 32.4097 38.3448 32.121 38.8163C31.8324 39.2877 31.4191 39.6702 30.9268 39.9216C30.4344 40.173 29.8822 40.2835 29.3311 40.2408C28.7799 40.1982 28.2513 40.0041 27.8035 39.68C27.3557 39.3558 27.0062 38.9143 26.7935 38.4041C26.5808 37.8938 26.5132 37.3348 26.5982 36.7885C26.6832 36.2423 26.9174 35.7302 27.2751 35.3087C27.6327 34.8872 28.0999 34.5727 28.625 34.4V26.1875C28.625 25.9389 28.7238 25.7004 28.8996 25.5246C29.0754 25.3488 29.3139 25.25 29.5625 25.25C29.8111 25.25 30.0496 25.3488 30.2254 25.5246C30.4012 25.7004 30.5 25.9389 30.5 26.1875V34.4C31.0999 34.5976 31.6223 34.9794 31.9926 35.4912C32.3629 36.0029 32.5623 36.6184 32.5625 37.25Z" fill="#33A3AA"/>
</svg>
