<svg width="60" height="60" viewBox="0 0 60 60" fill="none" xmlns="http://www.w3.org/2000/svg">
<circle cx="30" cy="30" r="30" fill="#EFF2F7"/>
<path d="M29.0535 32.4047H27.9775C26.4304 32.4047 25.6569 32.4047 25.3642 31.9018C25.0715 31.3989 25.4537 30.7263 26.2179 29.3811L28.6136 25.1647C28.9931 24.4969 29.1828 24.163 29.3712 24.2127C29.5595 24.2625 29.5595 24.6466 29.5595 25.4146V28.2559C29.5595 28.4944 29.5595 28.6137 29.6336 28.6878C29.7077 28.7619 29.8269 28.7619 30.0654 28.7619H31.1414C32.6886 28.7619 33.4621 28.7619 33.7548 29.2648C34.0475 29.7677 33.6653 30.4403 32.9011 31.7854L30.5053 36.0019C30.1259 36.6697 29.9362 37.0036 29.7478 36.9538C29.5595 36.9041 29.5595 36.52 29.5595 35.7519V32.9107C29.5595 32.6722 29.5595 32.5529 29.4854 32.4788C29.4113 32.4047 29.2921 32.4047 29.0535 32.4047Z" fill="#33A3AA"/>
<circle cx="29.5" cy="30.5" r="10.5" stroke="#33A3AA" stroke-width="1.5"/>
</svg>
