<svg width="60" height="60" viewBox="0 0 60 60" fill="none" xmlns="http://www.w3.org/2000/svg">
<circle cx="30" cy="30" r="30" fill="#EFF2F7"/>
<path d="M36.2188 36.6406C36.2188 37.573 35.8484 38.4672 35.189 39.1265C34.5297 39.7859 33.6355 40.1562 32.7031 40.1562C31.1914 40.1562 29.7313 39.1742 29.2309 37.8219C29.1662 37.6469 29.1737 37.4534 29.2517 37.284C29.3298 37.1145 29.4719 36.983 29.6469 36.9184C29.8219 36.8537 30.0153 36.8612 30.1848 36.9392C30.3542 37.0173 30.4857 37.1594 30.5504 37.3344C30.8434 38.1277 31.7891 38.75 32.7031 38.75C33.2626 38.75 33.7991 38.5278 34.1947 38.1322C34.5903 37.7366 34.8125 37.2001 34.8125 36.6406C34.8125 36.0812 34.5903 35.5447 34.1947 35.1491C33.7991 34.7535 33.2626 34.5312 32.7031 34.5312H19.5781C19.3916 34.5312 19.2128 34.4572 19.0809 34.3253C18.9491 34.1934 18.875 34.0146 18.875 33.8281C18.875 33.6416 18.9491 33.4628 19.0809 33.3309C19.2128 33.1991 19.3916 33.125 19.5781 33.125H32.7031C33.6355 33.125 34.5297 33.4954 35.189 34.1547C35.8484 34.814 36.2188 35.7082 36.2188 36.6406ZM32.4688 23.5156C32.4688 22.5832 32.0984 21.689 31.439 21.0297C30.7797 20.3704 29.8855 20 28.9531 20C27.4414 20 25.9813 20.982 25.4809 22.3344C25.4162 22.5094 25.4237 22.7029 25.5017 22.8723C25.5798 23.0417 25.7219 23.1732 25.8969 23.2379C26.0719 23.3025 26.2654 23.295 26.4348 23.217C26.6042 23.139 26.7357 22.9969 26.8004 22.8219C27.0934 22.0285 28.0391 21.4062 28.9531 21.4062C29.5126 21.4062 30.0491 21.6285 30.4447 22.0241C30.8403 22.4197 31.0625 22.9562 31.0625 23.5156C31.0625 24.0751 30.8403 24.6116 30.4447 25.0072C30.0491 25.4028 29.5126 25.625 28.9531 25.625H17.7031C17.5166 25.625 17.3378 25.6991 17.2059 25.8309C17.0741 25.9628 17 26.1416 17 26.3281C17 26.5146 17.0741 26.6934 17.2059 26.8253C17.3378 26.9572 17.5166 27.0312 17.7031 27.0312H28.9531C29.8855 27.0312 30.7797 26.6609 31.439 26.0015C32.0984 25.3422 32.4688 24.448 32.4688 23.5156ZM39.2656 23.75C37.7539 23.75 36.2937 24.732 35.7934 26.0844C35.7613 26.171 35.7467 26.2631 35.7503 26.3554C35.7539 26.4477 35.7756 26.5384 35.8142 26.6223C35.8529 26.7062 35.9077 26.7817 35.9754 26.8444C36.0432 26.9071 36.1227 26.9559 36.2094 26.9879C36.296 27.0199 36.3881 27.0345 36.4804 27.0309C36.5727 27.0274 36.6634 27.0056 36.7473 26.967C36.8312 26.9284 36.9067 26.8736 36.9694 26.8058C37.0321 26.738 37.0809 26.6585 37.1129 26.5719C37.4059 25.7785 38.3516 25.1562 39.2656 25.1562C39.8251 25.1562 40.3616 25.3785 40.7572 25.7741C41.1528 26.1697 41.375 26.7062 41.375 27.2656C41.375 27.8251 41.1528 28.3616 40.7572 28.7572C40.3616 29.1528 39.8251 29.375 39.2656 29.375H18.6406C18.4541 29.375 18.2753 29.4491 18.1434 29.5809C18.0116 29.7128 17.9375 29.8916 17.9375 30.0781C17.9375 30.2646 18.0116 30.4434 18.1434 30.5753C18.2753 30.7072 18.4541 30.7812 18.6406 30.7812H39.2656C40.198 30.7812 41.0922 30.4109 41.7515 29.7515C42.4109 29.0922 42.7812 28.198 42.7812 27.2656C42.7812 26.3332 42.4109 25.439 41.7515 24.7797C41.0922 24.1204 40.198 23.75 39.2656 23.75Z" fill="#33A3AA"/>
</svg>
